<svg id="Layer_1" data-name="Layer 1" xmlns="http://www.w3.org/2000/svg" xmlns:xlink="http://www.w3.org/1999/xlink" viewBox="0 0 291.92 162.71"><defs><style>.cls-1{fill:none;}.cls-2{clip-path:url(#clip-path);}.cls-3{fill:#f7f7f7;}.cls-4{fill:#fff;}</style><clipPath id="clip-path"><rect class="cls-1" width="291.92" height="162.71"/></clipPath></defs><g class="cls-2"><path class="cls-3" d="M59,140.72a1,1,0,0,1,.95.76,6.66,6.66,0,0,0,1.28,3q1.91,2.28,6.56,2.28a14.08,14.08,0,0,0,4.52-.6q3.3-1.16,3.3-4.28A3.16,3.16,0,0,0,74,139.07a17.61,17.61,0,0,0-5.12-1.73l-4-.87q-5.88-1.31-8.09-2.83c-2.48-1.7-3.73-4.36-3.73-8a10.62,10.62,0,0,1,3.65-8.24q3.65-3.27,10.72-3.28a16.45,16.45,0,0,1,10.07,3.09,10.71,10.71,0,0,1,4.29,7.88,1,1,0,0,1-1,1.1h-5.5a1,1,0,0,1-1-.8,5.13,5.13,0,0,0-2.89-3.93,10.14,10.14,0,0,0-4.59-.93,8.73,8.73,0,0,0-4.87,1.2,3.79,3.79,0,0,0-1.82,3.36,3.16,3.16,0,0,0,1.79,3,22.57,22.57,0,0,0,4.9,1.52l6.48,1.53a16.55,16.55,0,0,1,6.38,2.68,9,9,0,0,1,3.29,7.53,10.6,10.6,0,0,1-3.9,8.4q-3.91,3.34-11,3.34t-11.45-3.29a10.69,10.69,0,0,1-4.14-8,1,1,0,0,1,1-1.07Z"/><path class="cls-3" d="M116.87,148.83q-4.17,4.3-12.08,4.3t-12.09-4.3q-5.61-5.28-5.61-15.22,0-10.13,5.61-15.21,4.17-4.31,12.09-4.31t12.08,4.31q5.58,5.09,5.58,15.21,0,9.94-5.58,15.22m-4.81-5.61q2.68-3.37,2.69-9.61T112.06,124a8.81,8.81,0,0,0-7.27-3.4A8.91,8.91,0,0,0,97.48,124q-2.73,3.39-2.73,9.61t2.73,9.61a8.89,8.89,0,0,0,7.31,3.38,8.8,8.8,0,0,0,7.27-3.38"/><path class="cls-3" d="M152,116.17a9.08,9.08,0,0,1,3.46,2.58,11.33,11.33,0,0,1,1.85,3.1,20,20,0,0,1,1.14,5.43,13,13,0,0,1-1.65,7.21,11.07,11.07,0,0,1-5.33,3.95,1,1,0,0,0-.56,1.35c1.45,2.87,5.34,7.71,7,10.9a1,1,0,0,1-.87,1.42h-6.26a1,1,0,0,1-.89-.59c-1-2.41-4.91-8.16-6-10.45a1,1,0,0,0-.89-.56h-5.92a1,1,0,0,0-1,1l0,9.65a1,1,0,0,1-1,1h-5.59a1,1,0,0,1-1-1V116.19a1,1,0,0,1,1-1h16.67a16.09,16.09,0,0,1,5.82,1M136,122.53l0,10.09a1,1,0,0,0,1,.91h7.32a9.43,9.43,0,0,0,3.7-.56c1.46-.66,2.61-1.2,2.61-5.69,0-2.09-1.16-4.33-2.57-5a8.21,8.21,0,0,0-3.57-.6H137a.94.94,0,0,0-1,.9"/><path class="cls-3" d="M176.58,115.22h7.35a1,1,0,0,1,.92.65l12.36,34.94a1,1,0,0,1-.92,1.3H190a1,1,0,0,1-.93-.68l-2-6.23a1,1,0,0,0-.92-.68H174a1,1,0,0,0-.93.67L171,151.44a1,1,0,0,1-.92.67h-6a1,1,0,0,1-.92-1.3l12.48-34.94a1,1,0,0,1,.91-.65m.16,22.95h6.76a1,1,0,0,0,.93-1.27l-3.34-10.4a1,1,0,0,0-1.85,0l-3.43,10.39a1,1,0,0,0,.93,1.28"/><path class="cls-3" d="M205.89,119.07a15.2,15.2,0,0,1,11.33-4.55q9.21,0,13.47,6.11a13.83,13.83,0,0,1,2.41,5.74,1,1,0,0,1-1,1.14h-5.9a1,1,0,0,1-.93-.7,9.37,9.37,0,0,0-1.68-3.31,8.37,8.37,0,0,0-12.6,1c-1.58,2.26-2.38,5.46-2.38,9.6s.84,7.24,2.51,9.3a7.88,7.88,0,0,0,6.38,3.09,7.24,7.24,0,0,0,6.05-2.66,10.61,10.61,0,0,0,1.7-3.57,1,1,0,0,1,.94-.7H232a1,1,0,0,1,1,1.16,16.3,16.3,0,0,1-4.84,8.64,14.73,14.73,0,0,1-10.43,3.78q-7.87,0-12.38-5.1T200.76,134q0-9.66,5.13-14.89"/><path class="cls-3" d="M239.32,151.13V116.19a1,1,0,0,1,1-1H246a1,1,0,0,1,1,1v12.12a1,1,0,0,0,1,1h12.39a1,1,0,0,0,1-1V116.19a1,1,0,0,1,1-1H268a1,1,0,0,1,1,1v34.94a1,1,0,0,1-1,1H262.3a1,1,0,0,1-1-1V136.61a1,1,0,0,0-1-1H248a1,1,0,0,0-1,1v14.52a1,1,0,0,1-1,1H240.3a1,1,0,0,1-1-1"/><path class="cls-3" d="M282.45,152.11h-5.71a1,1,0,0,1-1-1V116.19a1,1,0,0,1,1-1h5.71a1,1,0,0,1,1,1v34.94a1,1,0,0,1-1,1"/><path class="cls-3" d="M132.29,101.64h-3.87a1.74,1.74,0,0,1-1.73-1.73V68.05a1.74,1.74,0,0,1,1.73-1.73h3.87A1.73,1.73,0,0,1,134,68.05V99.91a1.73,1.73,0,0,1-1.73,1.73"/><path class="cls-3" d="M167.05,72.57H151.83a1.73,1.73,0,0,0-1.73,1.74v4a1.72,1.72,0,0,0,1.73,1.73h13.69a1.73,1.73,0,0,1,1.73,1.74v2.67a1.73,1.73,0,0,1-1.73,1.73H151.83a1.72,1.72,0,0,0-1.73,1.73v5.62a1.73,1.73,0,0,0,1.73,1.73h16.09A1.74,1.74,0,0,1,169.65,97v2.89a1.74,1.74,0,0,1-1.73,1.73H144.61a1.74,1.74,0,0,1-1.73-1.73V68.05a1.74,1.74,0,0,1,1.73-1.73h22.44a1.73,1.73,0,0,1,1.73,1.73v2.79a1.72,1.72,0,0,1-1.73,1.73"/><path class="cls-4" d="M253,90.43q-4,3.3-11.33,3.31h-9.4L230.08,108a2.39,2.39,0,0,1-4.75-.23l-2.09-37a5.64,5.64,0,0,1,5.62-6H242.3q6.7,0,10.69,3.5t4,10.82q0,8-4,11.31m-7.2-16.28a7.61,7.61,0,0,0-5-1.5H233l-.7,13.3h8.51a7.23,7.23,0,0,0,5-1.62c1.19-1.09,1.79-2.8,1.79-5.15s-.6-4-1.79-5"/><path class="cls-4" d="M189.68,65.14h5a1.38,1.38,0,0,1,1.38,1.38V87.6a12.58,12.58,0,0,0,.89,5.5q1.38,3.08,6,3.08t6-3.08a12.73,12.73,0,0,0,.89-5.5V66.52a1.37,1.37,0,0,1,1.37-1.38h5a1.37,1.37,0,0,1,1.37,1.38v21.1c0,3.89-.6,6.91-1.81,9.08q-3.36,6-12.85,6t-12.88-6c-1.21-2.17-1.81-5.19-1.81-9.08V66.52a1.38,1.38,0,0,1,1.38-1.38"/><path class="cls-3" d="M238.74,29.42A1.78,1.78,0,0,0,240,28.9l17.35-17.35A1.79,1.79,0,1,0,254.82,9L237.47,26.37a1.8,1.8,0,0,0,0,2.53,1.79,1.79,0,0,0,1.27.52"/><path class="cls-3" d="M211.89,56.28a1.79,1.79,0,0,0,1.26-.53L230.5,38.41a1.8,1.8,0,0,0,0-2.53,1.79,1.79,0,0,0-2.53,0L210.62,53.23a1.77,1.77,0,0,0,0,2.52,1.8,1.8,0,0,0,1.27.53"/><path class="cls-3" d="M242.66,42.85a1.76,1.76,0,0,0,1.26-.52,1.79,1.79,0,0,0,0-2.53L226.57,22.45A1.79,1.79,0,1,0,224.05,25L241.4,42.33a1.75,1.75,0,0,0,1.26.52"/><path class="cls-3" d="M210.38,29.42a1.75,1.75,0,0,0,1.26-.52L229,11.55A1.79,1.79,0,1,0,226.46,9L209.12,26.37a1.79,1.79,0,0,0,0,2.53,1.76,1.76,0,0,0,1.26.52"/><path class="cls-3" d="M183.53,56.28a1.77,1.77,0,0,0,1.26-.53l17.35-17.34a1.79,1.79,0,1,0-2.53-2.53L182.27,53.23a1.77,1.77,0,0,0,0,2.52,1.76,1.76,0,0,0,1.26.53"/><path class="cls-3" d="M214.3,42.85a1.75,1.75,0,0,0,1.26-.52,1.79,1.79,0,0,0,0-2.53L198.22,22.45a1.8,1.8,0,0,0-2.53,0,1.79,1.79,0,0,0,0,2.53L213,42.33a1.76,1.76,0,0,0,1.26.52"/><path class="cls-3" d="M182,29.42a1.79,1.79,0,0,0,1.27-.52l17.34-17.35A1.78,1.78,0,1,0,198.11,9L180.76,26.37A1.79,1.79,0,0,0,182,29.42"/><path class="cls-3" d="M155.17,56.28a1.77,1.77,0,0,0,1.26-.53l17.35-17.34a1.79,1.79,0,0,0-2.53-2.53L153.91,53.23a1.79,1.79,0,0,0,1.26,3.05"/><path class="cls-3" d="M185.94,42.85a1.79,1.79,0,0,0,1.27-.52,1.8,1.8,0,0,0,0-2.53L169.86,22.45A1.79,1.79,0,0,0,167.33,25l17.35,17.35a1.78,1.78,0,0,0,1.26.52"/><path class="cls-3" d="M153.19,29.42a1.79,1.79,0,0,0,1.27-.52L171.8,11.55A1.78,1.78,0,1,0,169.28,9L151.93,26.37a1.79,1.79,0,0,0,1.26,3.05"/><path class="cls-3" d="M126.34,56.28a1.77,1.77,0,0,0,1.26-.53L145,38.41a1.79,1.79,0,1,0-2.53-2.53L125.08,53.23a1.79,1.79,0,0,0,1.26,3.05"/><path class="cls-3" d="M157.11,42.85a1.79,1.79,0,0,0,1.27-3.05L141,22.45A1.79,1.79,0,1,0,138.5,25l17.35,17.35a1.78,1.78,0,0,0,1.26.52"/><path class="cls-3" d="M101.52,24Q89.06,13,68.1,13h-42A17.61,17.61,0,0,0,8.53,31.64l6.54,115.51a7.47,7.47,0,0,0,14.84.72l6.88-44.43H66.18q23,0,35.4-10.34T114,57.76q0-22.9-12.46-33.81m-57,3.9a6.91,6.91,0,1,1-6.91,6.9,6.91,6.91,0,0,1,6.91-6.9M87.65,55.59q0,9.85-3.05,15.33Q78.92,81,62.9,81T41.15,70.92q-3.06-5.48-3-15.33V54.9a6.56,6.56,0,0,1,13.11,0v.66q0,6.36,1.5,9.29Q55.05,70,62.9,70.05T73,64.85q1.5-2.92,1.5-9.29V54.9a6.56,6.56,0,0,1,13.11,0Z"/></g></svg>